<?xml version="1.0" encoding="utf-8"?>
<!-- Generator: Adobe Illustrator 24.0.2, SVG Export Plug-In . SVG Version: 6.00 Build 0)  -->
<svg version="1.1" id="Layer_1" xmlns="http://www.w3.org/2000/svg" xmlns:xlink="http://www.w3.org/1999/xlink" x="0px" y="0px"
	 viewBox="0 0 512 512" enable-background="new 0 0 512 512" xml:space="preserve">
<g>
	<g>
		<path fill="#353F49" d="M392.2,240.1c0,74.2-60.1,134.3-134.3,134.3c-74.1,0-134.3-60.1-134.3-134.3
			c0-74.2,60.1-134.3,134.3-134.3C332.1,105.8,392.2,165.9,392.2,240.1z"/>
	</g>
	<g>
		<g>
			<g>
				<circle fill="#FFDB7A" cx="139.4" cy="229.3" r="44.6"/>
			</g>
		</g>
		<g>
			<g>
				<path fill="#FECA5C" d="M181.3,229.3c0,23.1-18.7,41.8-41.8,41.8s-41.8-18.7-41.8-41.8c0-23.1,18.7-41.8,41.8-41.8
					S181.3,206.2,181.3,229.3z"/>
			</g>
		</g>
		<g>
			<g>
				<path fill="#FFDB7A" d="M176.5,229.3c0,20.4-16.6,37-37,37c-20.4,0-37-16.6-37-37c0-20.5,16.6-37,37-37
					C159.9,192.2,176.5,208.8,176.5,229.3z"/>
			</g>
		</g>
		<g>
			<g>
				<g>
					<polygon fill="#353F49" points="139.4,232.3 121,221.7 122.7,218.7 139.4,228.4 163.7,213.8 165.4,216.8 					"/>
				</g>
			</g>
		</g>
		<g>
			<g>
				<path fill="#F77B55" d="M144.1,229.3c0,2.6-2.1,4.7-4.7,4.7s-4.7-2.1-4.7-4.7c0-2.6,2.1-4.7,4.7-4.7S144.1,226.7,144.1,229.3z"
					/>
			</g>
		</g>
		<g>
			<g>
				<path fill="#353F49" d="M140.9,196.6c0,0.8-0.7,1.5-1.5,1.5c-0.8,0-1.5-0.7-1.5-1.5c0-0.8,0.7-1.5,1.5-1.5
					C140.3,195.1,140.9,195.8,140.9,196.6z"/>
			</g>
		</g>
		<g>
			<g>
				<path fill="#353F49" d="M124.4,200.2c0.4,0.7,0.2,1.6-0.5,2c-0.7,0.4-1.6,0.2-2-0.5c-0.4-0.7-0.2-1.6,0.5-2
					C123.1,199.3,124,199.5,124.4,200.2z"/>
			</g>
		</g>
		<g>
			<g>
				<path fill="#353F49" d="M111.9,211.6c0.7,0.4,1,1.3,0.5,2c-0.4,0.7-1.3,1-2,0.5c-0.7-0.4-1-1.3-0.5-2.1
					C110.3,211.5,111.2,211.2,111.9,211.6z"/>
			</g>
		</g>
		<g>
			<g>
				<path fill="#353F49" d="M106.8,227.8c0.8,0,1.5,0.7,1.5,1.5c0,0.8-0.7,1.5-1.5,1.5c-0.8,0-1.5-0.7-1.5-1.5
					C105.3,228.4,105.9,227.8,106.8,227.8z"/>
			</g>
		</g>
		<g>
			<g>
				<path fill="#353F49" d="M110.4,244.3c0.7-0.4,1.6-0.2,2,0.5c0.4,0.7,0.2,1.6-0.5,2.1c-0.7,0.4-1.6,0.2-2-0.5
					C109.4,245.6,109.7,244.7,110.4,244.3z"/>
			</g>
		</g>
		<g>
			<g>
				<path fill="#353F49" d="M121.8,256.8c0.4-0.7,1.3-1,2-0.6c0.7,0.4,1,1.3,0.5,2.1c-0.4,0.7-1.3,1-2,0.5
					C121.6,258.4,121.4,257.5,121.8,256.8z"/>
			</g>
		</g>
		<g>
			<g>
				<path fill="#353F49" d="M137.9,261.9c0-0.8,0.7-1.5,1.5-1.5c0.8,0,1.5,0.7,1.5,1.5c0,0.8-0.7,1.5-1.5,1.5
					C138.6,263.4,137.9,262.8,137.9,261.9z"/>
			</g>
		</g>
		<g>
			<g>
				<path fill="#353F49" d="M154.5,258.3c-0.4-0.7-0.2-1.6,0.5-2.1c0.7-0.4,1.6-0.2,2,0.6c0.4,0.7,0.2,1.6-0.5,2.1
					C155.8,259.3,154.9,259,154.5,258.3z"/>
			</g>
		</g>
		<g>
			<g>
				<path fill="#353F49" d="M167,246.9c-0.7-0.4-1-1.3-0.5-2.1c0.4-0.7,1.3-1,2-0.5c0.7,0.4,1,1.3,0.5,2
					C168.6,247.1,167.7,247.3,167,246.9z"/>
			</g>
		</g>
		<g>
			<g>
				<path fill="#353F49" d="M172.1,230.8c-0.8,0-1.5-0.7-1.5-1.5c0-0.8,0.7-1.5,1.5-1.5c0.8,0,1.5,0.7,1.5,1.5
					C173.6,230.1,172.9,230.8,172.1,230.8z"/>
			</g>
		</g>
		<g>
			<g>
				<path fill="#353F49" d="M168.5,214.2c-0.7,0.4-1.6,0.2-2-0.5c-0.4-0.7-0.2-1.6,0.5-2c0.7-0.4,1.6-0.2,2,0.5
					C169.5,212.9,169.2,213.8,168.5,214.2z"/>
			</g>
		</g>
		<g>
			<g>
				<path fill="#353F49" d="M157.1,201.7c-0.4,0.7-1.3,1-2,0.5c-0.7-0.4-1-1.3-0.5-2c0.4-0.7,1.3-1,2-0.5
					C157.2,200.1,157.5,201,157.1,201.7z"/>
			</g>
		</g>
	</g>
	<g>
		<g>
			<g>
				<path fill="#FECA5C" d="M414.2,238.8c0,23.5-19.1,42.6-42.6,42.6c-23.5,0-42.6-19.1-42.6-42.6c0-23.5,19.1-42.6,42.6-42.6
					C395.1,196.2,414.2,215.3,414.2,238.8z"/>
			</g>
			<g>
				<path fill="#FFDB7A" d="M402.8,238.8c0,17.2-14,31.2-31.2,31.2c-17.2,0-31.2-14-31.2-31.2c0-17.2,14-31.2,31.2-31.2
					C388.8,207.6,402.8,221.5,402.8,238.8z"/>
			</g>
		</g>
		<g>
			<g>
				<path fill="#FECA5C" d="M387.1,246.8c0,3.3-1.2,5.9-3.5,7.9c-2.4,2-5.7,3.2-10,3.6v6.3h-4.2v-6.2c-5-0.1-9.4-1-13.2-2.7v-8.2
					c1.8,0.9,4,1.7,6.5,2.3c2.5,0.7,4.8,1.1,6.7,1.2v-9.6l-2.1-0.8c-4.1-1.6-7-3.4-8.7-5.2c-1.7-1.9-2.5-4.2-2.5-7
					c0-3,1.2-5.5,3.5-7.4c2.3-1.9,5.6-3.1,9.8-3.5v-4.7h4.2v4.6c4.7,0.2,9,1.2,12.8,2.8l-2.9,7.2c-3.2-1.3-6.5-2.1-9.9-2.4v9.1
					c4,1.5,6.9,2.9,8.6,4c1.7,1.1,2.9,2.4,3.7,3.7C386.7,243.4,387.1,245,387.1,246.8z M365.4,228.5c0,0.9,0.3,1.6,0.9,2.2
					c0.6,0.6,1.6,1.2,3,1.8v-7.3C366.7,225.7,365.4,226.8,365.4,228.5z M377.8,247.3c0-0.9-0.3-1.6-1-2.2c-0.7-0.6-1.8-1.2-3.1-1.9
					v7.7C376.4,250.5,377.8,249.3,377.8,247.3z"/>
			</g>
		</g>
	</g>
	<g>
		<path fill="#77D0DE" d="M466.4,145.9c-21.2-21.8-50.5-32.7-87.9-32.7c-25.1,0-47.5,6.1-67.3,18.3c-19.8,12.2-38.3,31.6-55.4,58.3
			c0,0,0,0,0-0.1c0,0,0,0,0,0.1c-17.1-26.7-35.6-46.2-55.4-58.3c-19.8-12.2-42.3-18.3-67.3-18.3c-37.4,0-66.7,10.9-87.9,32.7
			c-21.2,21.8-31.8,51-31.8,87.6c0,36.2,10.8,65.3,32.3,87.2c21.5,21.9,50.4,32.8,86.7,32.8c25.8,0,48.9-5.5,69.4-16.5
			c19.2-10.3,37.2-26.8,54.1-49.3c16.8,22.5,34.8,39,54.1,49.3c20.5,11,43.6,16.5,69.4,16.5c36.2,0,65.1-10.9,86.7-32.8
			c21.5-21.9,32.3-50.9,32.3-87.2C498.2,196.9,487.6,167.7,466.4,145.9z M202.8,276.1c-8.7,9.3-18.5,16.5-29.4,21.4
			c-10.9,4.9-23.6,7.4-37.9,7.4c-22.6,0-40.2-6.4-53-19.2c-12.8-12.8-19.1-30-19.1-51.6c0-22,6.3-39.4,19-52.4
			c12.7-13,30.4-19.5,53.2-19.5c20.3,0,38.2,5.3,53.7,15.8c15.5,10.5,29.7,28.3,42.7,53.4C221.1,251.8,211.4,266.7,202.8,276.1z
			 M429.2,285.7c-12.8,12.8-30.4,19.2-53,19.2c-14.4,0-27-2.5-37.9-7.4c-10.9-4.9-20.7-12.1-29.4-21.4c-8.7-9.3-18.4-24.3-29.1-44.8
			c13-25.1,27.2-42.9,42.7-53.4c15.5-10.5,33.4-15.8,53.7-15.8c22.8,0,40.5,6.5,53.2,19.5c12.6,13,19,30.5,19,52.4
			C448.3,255.7,441.9,272.9,429.2,285.7z"/>
	</g>
	<g>
		<path fill="#92E0EA" d="M161.5,116.4c0,0,46.1,0,92.7,71.1c47.5,72.5,45.5,99.1,101.9,115.6c23.5,6.9,61.1-8,61.1-8l-44,58.2
			c0,0-30.3,1.8-63.3-16.2c-50.8-27.8-59.8-58.3-83.5-109.3c-20.1-43.1-46.3-59.7-70.6-63.7c-27.4-4.5-47.5,1.9-47.5,1.9
			L161.5,116.4z"/>
	</g>
</g>
</svg>
